PathFileType	4	(X/Y/Z)	E:\Qualisys_Data\Carbon_Farble_Plate\Data\Amateur_Runner\S2\T3\S2T3V22_c3d.trc
DataRate	CameraRate	NumFrames	NumMarkers	Units	OrigDataRate	OrigDataStartFrame	OrigNumFrames
200.000000	200.000000	4	39	mm	200.000000	276	316
Frame#	Time	LSHO			RSHO			LICST			RICST			LASIS			LHEEL			RASIS			LTROC			RTROC			SACR			LTH1			LSK4			LTH2			LTH3			RHM5			LSK2			LTH4			RTH1			LTOE			RTH2			RTH3			RTH4			LLEP			RLEP			LSK1			LSK3			RSK1			LHM5			RSK2			LFT1			RSK3			RSK4			LLME			RLME			RTOE			RHEEL			RFT1			RFT2			LFT2			
		X1	Y1	Z1	X2	Y2	Z2	X3	Y3	Z3	X4	Y4	Z4	X5	Y5	Z5	X6	Y6	Z6	X7	Y7	Z7	X8	Y8	Z8	X9	Y9	Z9	X10	Y10	Z10	X11	Y11	Z11	X12	Y12	Z12	X13	Y13	Z13	X14	Y14	Z14	X15	Y15	Z15	X16	Y16	Z16	X17	Y17	Z17	X18	Y18	Z18	X19	Y19	Z19	X20	Y20	Z20	X21	Y21	Z21	X22	Y22	Z22	X23	Y23	Z23	X24	Y24	Z24	X25	Y25	Z25	X26	Y26	Z26	X27	Y27	Z27	X28	Y28	Z28	X29	Y29	Z29	X30	Y30	Z30	X31	Y31	Z31	X32	Y32	Z32	X33	Y33	Z33	X34	Y34	Z34	X35	Y35	Z35	X36	Y36	Z36	X37	Y37	Z37	X38	Y38	Z38	X39	Y39	Z39	

277	1.38	2134.778076171875	1463.295776367188	-563.1791381835938	2111.5830078125	1459.864501953125	-258.3429260253906	2070.741455078125	998.006103515625	-541.5592041015625	2087.9892578125	1000.329650878906	-241.9643249511719	2120.128662109375	946.0438232421876	-532.2430419921875	1599.157958984375	227.6031341552734	-425.7362060546875	2143.127685546875	952.1211547851562	-274.6972045898438	1973.0947265625	896.7767333984375	-533.2229614257812	2023.7392578125	897.3209838867188	-221.5571899414062	1985.788940429688	1040.30615234375	-394.156494140625	2013.834716796875	636.9498901367188	-544.6990356445312	1725.30224609375	364.7164916992188	-513.0264892578125	1934.713256835938	666.9920654296875	-546.9550170898438	1976.010009765625	542.7510375976562	-520.7841796875	2087.559814453125	161.5157928466797	-246.7337646484375	1784.136108398438	444.02587890625	-530.909912109375	1897.39990234375	576.21630859375	-520.57177734375	2268.480712890625	710.7437744140625	-230.9473114013672	1758.405639648438	48.25363922119141	-443.2950439453125	2201.477783203125	672.1336669921875	-218.7089691162109	2315.18798828125	622.388916015625	-249.7029113769531	2243.619873046875	585.3447875976562	-240.2026214599609	1910.123046875	519.3540649414062	-523.4647216796875	2277.076416015625	568.9370727539062	-242.4219665527344	1847.279907226562	396.2276916503906	-528.6560668945312	1787.22802734375	316.3586730957031	-516.8350830078125	2242.017822265625	457.1226196289062	-245.0936279296875	1697.224609375	69.73609161376953	-499.3495178222656	2183.1796875	511.7989196777344	-239.0387573242188	1591.742309570312	203.5920104980469	-392.9139404296875	2172.678466796875	382.4761352539062	-255.3954010009766	2116.70166015625	438.8562927246094	-251.3472137451172	1655.30078125	191.8150177001953	-483.7388305664062	2019.253051757812	272.5937805175781	-281.9733581542969	2155.086181640625	135.0779571533203	-297.9902038574219	1963.073974609375	292.8089294433594	-343.2070617675781	1960.70751953125	263.674072265625	-373.4529113769531	1943.440307617188	273.5448303222656	-324.4512939453125	1577.46826171875	201.6465759277344	-443.7226257324219
278	1.385	2155.316162109375	1467.437744140625	-562.1148681640625	2130.687255859375	1463.436157226562	-258.4361572265625	2091.794189453125	1001.436645507812	-541.5692749023438	2108.368896484375	1003.801147460938	-242.4883117675781	2142.040283203125	948.496826171875	-530.469970703125	1617.700561523438	239.5152435302734	-429.9951171875	2163.7216796875	955.902099609375	-275.2144775390625	1993.381591796875	901.9134521484376	-533.9304809570312	2044.185302734375	901.6420288085938	-222.0080871582031	2006.652709960938	1044.351196289062	-394.3922424316406	2027.483154296875	641.8314208984375	-545.3536376953125	1737.852905273438	372.183349609375	-514.927978515625	1949.662841796875	673.2216796875	-547.5056762695312	1989.055419921875	548.2682495117188	-522.8047485351562	2128.112548828125	155.7346801757812	-246.1146545410156	1796.82470703125	451.4619140625	-531.891357421875	1911.111450195312	583.6751098632812	-521.49560546875	2289.68017578125	714.0010375976562	-231.8826141357422	1763.045166015625	47.14391708374023	-444.8064880371094	2222.837890625	675.6908569335938	-218.5536499023438	2335.85009765625	625.5149536132812	-250.8726501464844	2264.330810546875	589.7686157226562	-240.5097045898438	1922.754028320312	526.3431396484375	-525.0217895507812	2297.275390625	573.1328125	-242.6299133300781	1860.03466796875	403.6716003417969	-530.6974487304688	1799.847534179688	323.42578125	-519.8455200195312	2266.760498046875	458.1199035644531	-244.839599609375	1702.421997070312	72.67495727539062	-500.4284362792969	2204.7958984375	509.3222351074219	-238.5543212890625	1606.515747070312	216.4071350097656	-396.845703125	2201.17578125	379.8968200683594	-255.6095886230469	2142.18212890625	432.858642578125	-251.6546478271484	1668.0205078125	198.955078125	-487.0000305175781	2053.516845703125	262.166015625	-282.3351135253906	2197.631591796875	132.9201202392578	-296.8195495605469	1996.688842773438	278.5551147460938	-345.1834411621094	1996.3720703125	249.075439453125	-374.6924133300781	1978.420043945312	258.3477172851562	-326.2244262695312	1592.333740234375	214.6188659667969	-447.8975524902344
279	1.39	2175.6259765625	1471.558471679688	-560.7050170898438	2150.061279296875	1466.869506835938	-258.6858215332031	2112.705078125	1005.094421386719	-542.1472778320312	2129.02880859375	1008.010375976562	-243.2508544921875	2163.055419921875	951.5474243164062	-531.0022583007812	1635.334350585938	250.8082885742188	-434.3856201171875	2184.035400390625	959.390869140625	-275.7382507324219	2013.199340820312	906.7328491210938	-534.78759765625	2064.62060546875	905.0393676757812	-222.2650604248047	2027.334594726562	1048.125244140625	-395.1746826171875	2042.193725585938	647.1283569335938	-547.1918334960938	1751.183227539062	379.248291015625	-516.0079345703125	1965.13916015625	679.7877807617188	-548.349853515625	2002.106323242188	553.842529296875	-525.0538940429688	2168.580810546875	150.3818817138672	-245.4939727783203	1810.123413085938	458.4615173339844	-532.250244140625	1925.213012695312	589.9486694335938	-521.5711059570312	2310.83203125	717.0098876953125	-232.5733489990234	1767.648559570312	46.15914154052734	-446.6736450195312	2243.464111328125	679.2965087890625	-219.3107757568359	2356.063232421875	627.8656616210938	-251.6005706787109	2284.1748046875	592.7515258789062	-241.0277099609375	1936.204956054688	532.8175048828125	-525.9602661132812	2317.026611328125	574.3434448242188	-244.3292999267578	1873.120849609375	410.7481384277344	-532.5143432617188	1812.690673828125	330.447021484375	-522.4287109375	2290.49462890625	458.4384155273438	-244.8193969726562	1708.436767578125	75.81926727294922	-502.3011474609375	2225.874755859375	506.2204895019531	-238.3002624511719	1622.5927734375	229.3815155029297	-400.7094116210938	2229.0185546875	376.8458862304688	-255.6964569091797	2167.4111328125	426.6079406738281	-252.0472106933594	1680.923461914062	206.2398071289062	-490.5972595214844	2088.38818359375	251.8641815185547	-283.4962463378906	2239.443115234375	131.2175903320312	-295.4346313476562	2030.798706054688	264.3052062988281	-346.4454040527344	2032.332397460938	234.6181945800781	-375.3215026855469	2013.15478515625	243.3690490722656	-326.69580078125	1608.230224609375	227.5897216796875	-452.0387268066406
280	1.395	2196.48828125	1475.550048828125	-559.7686767578125	2169.809814453125	1470.1142578125	-258.7872314453125	2133.90966796875	1007.944519042969	-542.0602416992188	2149.366943359375	1011.421325683594	-243.9264526367188	2183.678955078125	954.2908325195312	-531.2362060546875	1653.437133789062	261.6296691894531	-438.74365234375	2204.591552734375	962.803466796875	-276.314453125	2033.501953125	911.2334594726562	-535.7135009765625	2084.783447265625	908.4839477539062	-222.6249237060547	2048.0625	1051.43896484375	-395.4396667480469	2056.8251953125	652.0348510742188	-548.6782836914062	1764.587524414062	386.5905151367188	-517.7359619140625	1979.971069335938	685.6101684570312	-548.3361206054688	2015.780883789062	559.0761108398438	-527.0816650390625	2208.671142578125	145.1465911865234	-245.0519714355469	1823.754028320312	465.7515258789062	-532.88623046875	1939.60595703125	596.5570678710938	-521.6047973632812	2331.25537109375	719.1802978515625	-233.5252532958984	1772.044189453125	45.22432708740234	-448.3031311035156	2263.895751953125	681.9207763671875	-219.7724456787109	2375.623046875	629.6004638671875	-252.3458404541016	2303.550048828125	595.61376953125	-242.2762908935547	1950.002563476562	539.1633911132812	-526.70361328125	2334.8525390625	578.1995849609375	-244.5833282470703	1886.469848632812	417.3171691894531	-534.0115966796875	1826.060791015625	337.4357604980469	-524.8157348632812	2314.00732421875	458.2914428710938	-244.9533538818359	1714.53369140625	79.3660659790039	-504.210693359375	2247.288818359375	502.6047668457031	-237.9733276367188	1639.915161132812	242.3733978271484	-404.1481018066406	2257.3896484375	373.4909362792969	-256.1239624023438	2193.146484375	420.4839172363281	-252.4813995361328	1693.715942382812	213.8499755859375	-493.6935119628906	2123.20458984375	241.326171875	-283.9836730957031	2281.28662109375	130.3917541503906	-294.0875549316406	2065.4970703125	249.8090972900391	-347.9934692382812	2069.779052734375	220.2709655761719	-376.015380859375	2049.90625	227.2017059326172	-329.0362548828125	1624.995849609375	240.5390014648438	-456.0746459960938
